<?xml version="1.0" standalone="no"?>
<!DOCTYPE svg PUBLIC "-//W3C//DTD SVG 20010904//EN"
 "http://www.w3.org/TR/2001/REC-SVG-20010904/DTD/svg10.dtd">
<svg version="1.0" xmlns="http://www.w3.org/2000/svg"
 width="4167.000000pt" height="4167.000000pt" viewBox="0 0 4167.000000 4167.000000"
 preserveAspectRatio="xMidYMid meet">
<metadata>
Created by potrace 1.16, written by Peter Selinger 2001-2019
</metadata>
<g transform="translate(0.000000,4167.000000) scale(0.100000,-0.100000)"
fill="#000000" stroke="none">
<path d="M19940 31430 c-1487 -89 -2877 -500 -4139 -1223 -1880 -1077 -3335
-2768 -4111 -4777 -77 -199 -172 -471 -167 -476 11 -12 152 -53 158 -47 3 5
21 53 39 108 189 581 523 1292 883 1875 511 830 1191 1614 1940 2238 1398
1165 3078 1883 4877 2086 580 66 1312 74 1880 20 1018 -95 1967 -341 2895
-749 72 -31 238 -110 370 -176 1150 -569 2165 -1374 3007 -2386 353 -424 711
-952 989 -1458 230 -420 500 -1031 623 -1411 l17 -52 79 26 c44 15 80 30 80
35 0 16 -152 420 -216 575 -556 1337 -1407 2520 -2504 3484 -907 796 -2001
1428 -3148 1819 -749 254 -1473 403 -2312 475 -216 18 -1013 27 -1240 14z"/>
<path d="M20105 30814 c-38 -2 -144 -8 -235 -14 -1741 -113 -3400 -740 -4785
-1809 -520 -402 -1048 -917 -1462 -1428 -512 -631 -957 -1371 -1269 -2111
l-43 -102 36 -15 c19 -8 38 -15 42 -15 3 0 30 57 60 128 566 1336 1500 2548
2657 3448 1064 827 2283 1389 3599 1658 1646 336 3391 184 4940 -432 1840
-731 3360 -2048 4350 -3767 118 -205 307 -576 394 -775 35 -80 67 -149 72
-154 8 -9 65 10 74 25 8 12 -125 305 -246 544 -543 1073 -1300 2021 -2239
2805 -298 249 -746 566 -1080 766 -1194 714 -2468 1119 -3870 1229 -183 15
-840 27 -995 19z"/>
<path d="M29718 22650 c-102 -31 -262 -212 -400 -455 -71 -125 -218 -423 -303
-615 -43 -96 -92 -205 -111 -241 -93 -186 -359 -880 -343 -893 36 -28 92 -58
131 -67 l48 -13 0 -58 0 -58 -124 0 -124 0 -31 -97 c-194 -626 -402 -1428
-571 -2198 l-49 -220 -113 -110 c-396 -385 -1040 -785 -1425 -885 -227 -59
-396 -39 -496 58 -51 49 -82 112 -101 205 -34 163 -14 354 70 687 73 289 95
409 101 570 7 158 -7 228 -55 273 -75 72 -149 40 -339 -149 l-133 -131 -45 43
c-190 183 -515 138 -790 -108 -33 -30 -109 -81 -170 -114 -167 -92 -377 -223
-611 -380 -584 -393 -857 -610 -1324 -1054 l-165 -157 -192 391 c-261 533
-308 672 -306 921 1 242 63 420 244 696 159 243 305 389 388 389 80 0 9 -252
-195 -691 -53 -114 -56 -124 -50 -176 8 -65 33 -117 78 -160 79 -76 193 -72
264 9 26 30 37 63 77 224 118 480 140 830 61 985 -37 74 -73 94 -170 94 -76 0
-86 -3 -175 -47 -160 -79 -375 -268 -507 -444 -113 -151 -197 -323 -243 -500
-21 -77 -24 -112 -24 -264 0 -185 9 -244 62 -415 60 -192 140 -352 356 -715
77 -129 162 -279 190 -332 l49 -96 -152 -169 c-546 -603 -956 -1249 -1105
-1738 -91 -303 -85 -626 16 -816 64 -119 148 -174 306 -199 158 -26 350 44
513 185 570 493 881 1746 628 2535 l-31 95 114 108 c138 132 362 316 552 455
271 197 1044 708 1055 697 2 -1 -19 -63 -46 -137 -28 -73 -63 -182 -79 -243
-25 -99 -28 -126 -28 -275 0 -157 1 -168 26 -221 52 -110 140 -167 217 -139
166 59 404 315 920 988 111 145 202 257 202 248 0 -27 38 -56 74 -56 42 0 92
33 130 88 l30 42 -11 112 -11 112 81 107 c45 59 83 107 83 106 1 -1 -11 -67
-27 -147 -16 -80 -40 -221 -54 -315 -14 -93 -31 -204 -37 -245 -7 -41 -12
-160 -12 -265 0 -162 3 -203 22 -277 116 -464 521 -526 1228 -189 249 119 622
351 899 559 66 50 121 89 123 88 1 -2 -20 -122 -48 -267 -107 -554 -208 -1201
-259 -1654 -45 -401 -55 -563 -56 -915 0 -442 15 -555 95 -727 114 -245 291
-286 535 -124 414 273 1041 1179 1764 2546 107 203 111 209 111 165 0 -60 24
-169 50 -226 31 -72 84 -129 145 -160 47 -22 64 -26 109 -21 337 35 627 706
706 1632 5 66 10 149 10 183 0 35 3 62 8 60 4 -2 34 -17 67 -34 228 -119 538
-167 1087 -168 286 -1 327 -3 323 -16 -14 -50 -295 -1638 -295 -1671 0 -111
104 -163 217 -108 59 28 89 69 119 159 32 97 216 472 329 670 225 397 410 655
521 729 84 55 106 42 149 -89 42 -129 110 -285 167 -385 313 -553 756 -620
1338 -205 171 122 291 229 552 492 276 279 288 295 268 367 -11 42 -59 91 -88
91 -9 0 -119 -101 -244 -224 -519 -512 -778 -699 -1042 -752 -187 -38 -359 34
-501 210 -118 146 -215 339 -310 621 -57 170 -84 222 -145 279 -36 34 -58 46
-91 51 -162 23 -370 -197 -668 -709 -44 -77 -81 -137 -81 -133 0 4 70 330 155
724 131 601 155 726 150 769 -8 67 -58 151 -105 176 -44 24 -106 19 -148 -11
-58 -41 -77 -102 -139 -446 l-58 -319 -35 -8 c-290 -63 -902 -56 -1151 13
-122 34 -204 82 -301 180 -77 76 -89 94 -103 145 -58 207 -117 296 -207 310
-27 5 -41 1 -66 -21 -57 -48 -76 -112 -61 -204 8 -54 8 -54 -32 -98 -122 -133
-340 -557 -452 -879 -19 -55 -49 -160 -66 -234 -31 -130 -40 -149 -235 -545
-1033 -2093 -1764 -3109 -2064 -2868 -196 157 -201 794 -16 1963 66 420 163
931 284 1495 109 511 92 456 168 539 291 316 747 1115 1139 1996 64 143 193
449 193 456 0 2 -38 4 -85 4 l-85 0 0 59 0 58 65 5 c68 6 130 35 173 81 41 44
209 526 302 868 97 352 140 618 140 855 0 214 -30 338 -101 419 -50 57 -99 74
-161 55z m59 -272 c51 -98 -12 -430 -175 -923 -236 -711 -705 -1828 -1094
-2605 -141 -282 -265 -507 -274 -498 -7 8 208 827 357 1358 156 557 298 1012
421 1350 136 372 385 892 538 1123 79 120 173 227 199 227 6 0 18 -15 28 -32z
m913 -4364 c-46 -543 -247 -1361 -389 -1581 -49 -75 -89 -96 -129 -66 -15 11
-32 38 -39 59 -19 64 -15 261 8 423 l21 146 93 185 c51 102 129 263 175 359
89 189 92 206 49 279 l-19 34 45 86 c26 48 71 122 102 166 55 78 55 78 75 59
18 -19 18 -26 8 -149z m-5626 -84 c13 -14 -28 -93 -153 -293 -211 -340 -452
-608 -513 -571 -42 26 79 302 237 539 154 232 292 354 384 341 19 -3 39 -10
45 -16z m-2820 -1877 c55 -232 48 -580 -20 -892 -141 -655 -479 -1214 -812
-1342 -82 -31 -198 -31 -270 0 -41 19 -59 34 -80 70 -26 44 -27 52 -27 176 1
110 5 145 28 228 112 406 425 959 830 1465 145 181 316 374 327 367 4 -3 15
-35 24 -72z"/>
<path d="M11380 19912 c-36 -9 -67 -17 -69 -18 -5 -4 53 -231 109 -429 598
-2105 1944 -3963 3766 -5198 1436 -974 3057 -1516 4809 -1608 276 -15 931 -6
1185 15 1600 135 3031 615 4350 1460 470 300 994 711 1360 1063 l95 92 -57 57
-56 57 -44 -39 c-24 -21 -100 -90 -169 -153 -1336 -1222 -3054 -2034 -4855
-2295 -496 -72 -776 -91 -1354 -91 -476 0 -580 5 -935 41 -1937 196 -3762
1004 -5222 2311 -166 149 -499 481 -656 653 -890 981 -1539 2093 -1950 3345
-72 221 -174 577 -199 698 -13 64 -10 63 -108 39z"/>
<path d="M12108 19359 l-27 -10 61 -177 c334 -978 887 -1960 1547 -2747 260
-310 700 -761 972 -998 1085 -943 2321 -1587 3699 -1927 569 -140 1261 -233
1800 -242 l155 -3 3 43 3 42 -48 0 c-97 0 -443 20 -613 36 -3198 287 -5970
2315 -7230 5290 -65 153 -193 492 -240 637 -23 71 -29 75 -82 56z"/>
<path d="M25965 15313 c-968 -800 -2156 -1400 -3380 -1708 -60 -16 -113 -31
-117 -34 -4 -4 -3 -24 3 -45 10 -37 12 -38 46 -31 60 11 421 112 571 159 945
300 1835 757 2617 1344 139 105 381 298 389 311 2 3 -8 21 -22 38 l-27 32 -80
-66z"/>
</g>
</svg>
