
    <?xml version="1.0" encoding="UTF-8" standalone="no"?>
    <svg xmlns:dc="http://purl.org/dc/elements/1.1/" xmlns:cc="http://creativecommons.org/ns#" xmlns:rdf="http://www.w3.org/1999/02/22-rdf-syntax-ns#" xmlns:svg="http://www.w3.org/2000/svg" xmlns="http://www.w3.org/2000/svg" xmlns:sodipodi="http://sodipodi.sourceforge.net/DTD/sodipodi-0.dtd" xmlns:inkscape="http://www.inkscape.org/namespaces/inkscape" inkscape:version="1.0 (4035a4f, 2020-05-01)" sodipodi:docname="cultura salon logo.svg" viewBox="0 0 1333.3333 1333.3333"  xml:space="preserve" id="svg10" version="1.1">
      <metadata id="metadata16">
        <rdf:RDF>
          <cc:Work rdf:about="">
            <dc:format>image/svg+xml</dc:format>
            <dc:type rdf:resource="http://purl.org/dc/dcmitype/StillImage" />
            <dc:title></dc:title>
          </cc:Work>
        </rdf:RDF>
      </metadata>
      <defs id="defs14">
        <clipPath id="clipPath26" clipPathUnits="userSpaceOnUse">
          <path id="path24" d="M 0,1000 H 1000 V 0 H 0 Z" />
        </clipPath>
      </defs>
      <sodipodi:namedview inkscape:current-layer="g18" inkscape:window-maximized="0" inkscape:window-y="0" inkscape:window-x="0" inkscape:cy="666.66663" inkscape:cx="350.11336" inkscape:zoom="0.55125003" showgrid="false" id="namedview12" inkscape:window-height="1050" inkscape:window-width="1680" inkscape:pageshadow="2" inkscape:pageopacity="0" guidetolerance="10" gridtolerance="10" objecttolerance="10" borderopacity="1" bordercolor="#666666" pagecolor="#ffffff" />
      <g transform="matrix(1.3333333,0,0,-1.3333333,0,1333.3333)" inkscape:label="cultura salon logo" inkscape:groupmode="layer" id="g18">
        <g id="g20">
          <g clip-path="url(#clipPath26)" id="g22">
            <g transform="translate(487.4707,319.0254)" id="g28" />
            <g transform="translate(625.6826,368.1562)" id="g32" />
            <g transform="translate(646.1826,368.1562)" id="g40">
              <g id="g146">

                <!-- Circle bottom -->
                <g id="circle_bottom">
                  <path transform="translate(-158.7119,-49.1308)" d="M 0,0 C -92.003,1.41 -169.638,62.056 -196.45,145.483" style="fill:none;stroke:#807e7f;stroke-width:2;stroke-linecap:butt;stroke-linejoin:miter;stroke-miterlimit:10;stroke-dasharray:none;stroke-opacity:1" id="path30" >
                   <animate  attributeName="opacity"  from="0" to="1" fill="freeze" dur="5s" id="line1bot"/>
                  </path>
                  <path transform="translate(-20.499997)" d="M 0,0 C -24.587,-20.68 -53.99,-35.816 -86.285,-43.486" style="fill:none;stroke:#807e7f;stroke-width:2;stroke-linecap:butt;stroke-linejoin:miter;stroke-miterlimit:10;stroke-dasharray:none;stroke-opacity:1" id="path34" >
                        <animate attributeName="opacity"  from="0" to="1" fill="freeze" dur="5s" id="line2bot"/>
                  </path>
                  <path id="path42" style="fill:none;stroke:#807e7f;stroke-width:4;stroke-linecap:butt;stroke-linejoin:miter;stroke-miterlimit:10;stroke-dasharray:none;stroke-opacity:1" d="m 0,0 c -40.2,-38.794 -94.905,-62.656 -155.183,-62.656 -105.793,0 -194.418,73.504 -217.591,172.227" >
                  <animate  attributeName="opacity"  from="0" to="1" fill="freeze"  dur="5s" id="line3bot"  />
                  </path>
                </g>

              </g>
            </g>
            <g transform="translate(278.4336,598.2441)" id="g44" />
            <g transform="translate(505.0869,341.8027)" id="g48" />
            <g transform="translate(600.1504,430.7949)" id="g52" />
            <g transform="translate(715.2217,534.5151)" id="g56" />
            <g transform="translate(725.3936,414.501)" id="g60" />
            <g transform="translate(782.4756,409.4873)" id="g64">

              <!-- Salon Text -->
              <g id="salon_text">
               <animate  attributeName="opacity" from="0" to="1" fill="freeze" dur="5s"/>
                <path transform="translate(-277.3887,-67.684601)" d="m 0,0 c -0.339,-1.41 -0.565,-3.134 -0.565,-4.701 0,-2.507 0.678,-4.857 2.826,-5.64 1.017,-0.471 2.035,-0.627 3.165,-0.627 12.208,0 24.416,25.696 24.416,45.437 0,4.073 -0.452,7.834 -1.583,11.124 C 11.19,27.418 2.147,9.243 0,0 m 32.894,109.83 c 0,0.941 -0.226,1.567 -0.905,1.567 -0.564,0 -1.356,-0.313 -2.373,-1.096 -2.262,-1.568 -6.218,-6.424 -9.721,-12.848 -2.374,-4.388 -3.279,-8.461 -3.279,-12.378 0,-10.183 6.67,-19.428 12.096,-31.648 10.398,10.341 19.329,18.017 30.858,25.851 6.557,4.544 15.148,10.341 22.947,14.258 2.6,-0.313 3.957,-3.29 3.957,-6.11 0,-1.724 -0.566,-3.447 -1.696,-4.388 C 76.979,81.785 70.083,77.555 63.64,73.168 51.997,65.334 41.146,58.597 30.633,47.942 c 2.035,-5.17 2.939,-11.28 2.939,-17.39 0,-23.502 -12.773,-50.137 -27.921,-50.137 -1.468,0 -2.938,0.314 -4.408,0.783 -4.521,1.41 -6.33,7.521 -6.33,13.788 0,2.35 0.339,4.701 0.792,6.894 2.373,10.497 11.868,28.672 30.972,48.569 -4.295,10.028 -15.939,22.719 -15.939,37.447 0,4.386 1.018,8.93 3.617,13.788 4.183,7.833 10.74,12.533 13.226,14.256 2.6,1.568 4.635,2.194 6.217,2.194 3.053,0 4.408,-2.35 4.748,-6.111 0.113,-0.783 0.113,-1.566 0.113,-2.506 0,-9.557 -3.73,-21.621 -3.73,-21.778 -0.905,-1.723 -2.374,-2.35 -3.844,-2.35 -2.373,0 -4.86,2.037 -4.86,5.483 0,0.471 0,0.941 0.113,1.41 0,0.157 6.556,13.161 6.556,17.548" style="fill:#807e7f;fill-opacity:1;fill-rule:nonzero;stroke:none" id="path50" />
                <path transform="translate(-182.3252,21.307603)" d="m 0,0 c -5.426,0 -14.921,-17.078 -14.921,-20.682 0,-0.469 0.227,-0.783 0.679,-0.783 2.147,0 8.93,7.521 16.051,20.682 C 1.244,-0.156 0.679,0 0,0 m 1.922,-10.341 c -8.93,-11.751 -19.104,-24.911 -23.964,-24.911 -0.113,0 -0.339,0.156 -0.565,0.156 -1.244,0.314 -2.148,1.254 -2.939,2.507 -0.904,1.567 -1.243,3.447 -1.243,5.641 0,0.783 0,1.566 0.112,2.349 0.227,2.507 0.905,5.641 2.035,8.775 3.279,10.027 10.287,21.778 18.991,25.382 2.26,0.939 4.295,1.253 6.103,1.253 3.505,0 6.105,-1.567 7.8,-3.917 3.391,3.917 7.348,7.834 9.495,7.834 0.339,0 0.679,-0.157 0.904,-0.314 1.47,-0.313 2.261,-2.35 2.261,-5.797 0,-3.76 -0.904,-9.087 -2.826,-15.824 -1.243,-4.7 -1.809,-8.617 -1.809,-11.751 0,-8.147 3.731,-11.124 9.27,-11.124 14.355,0 41.032,20.995 44.988,27.889 0.679,1.88 1.47,2.506 2.149,2.506 1.016,0 1.695,-1.253 1.695,-2.976 0,-0.941 -0.227,-1.881 -0.791,-2.82 -1.358,-2.664 -31.65,-27.262 -49.285,-27.262 -7.235,0 -12.321,4.229 -12.321,15.98 0,3.134 0.339,6.738 1.13,11.124 0.679,5.954 2.148,11.438 2.148,12.692 v 0.156 c 0,0 -1.696,-2.193 -4.295,-5.641 0.452,-1.879 0.452,-3.759 0.452,-4.7 V -3.76 C 10.399,-5.797 9.043,-6.737 7.8,-6.737 c -0.452,0 -0.904,0.157 -1.357,0.47 l -0.339,1.41 C 4.521,-7.051 3.844,-7.834 1.922,-10.341" style="fill:#807e7f;fill-opacity:1;fill-rule:nonzero;stroke:none" id="path54" />
                <path transform="translate(-67.2539,125.0278)" d="m 0,0 c 0,0.784 -0.113,1.41 -0.227,1.88 -0.338,0.94 -0.565,1.411 -0.791,1.411 h -0.113 c -1.13,0 -3.165,-2.507 -5.765,-6.581 -2.939,-4.7 -6.33,-11.594 -9.833,-19.898 -7.009,-16.608 -16.052,-51.233 -21.365,-71.915 C -31.085,-86.172 0,-16.607 0,0 m -54.146,-188.639 c 0,-4.858 0.454,-8.617 1.245,-10.968 1.13,-3.29 2.826,-4.856 4.86,-4.856 16.616,0 59.231,94.789 59.345,95.102 1.13,2.351 2.373,3.291 3.39,3.291 1.244,0 2.149,-1.254 2.149,-3.447 v -0.157 c -0.114,-0.313 -44.764,-96.983 -65.223,-96.983 -3.053,0 -5.539,2.194 -7.348,7.207 -1.13,3.29 -1.582,8.46 -1.582,14.728 0,41.049 21.929,135.682 36.963,164.354 3.618,8.618 7.235,15.825 10.286,20.838 3.504,5.484 6.669,8.617 9.269,8.617 h 0.113 c 1.922,-0.156 3.392,-1.879 4.296,-5.17 0.452,-1.723 0.678,-3.76 0.678,-6.11 0,-28.202 -32.216,-94.32 -45.893,-107.011 -8.365,-37.132 -12.548,-64.238 -12.548,-79.435" style="fill:#807e7f;fill-opacity:1;fill-rule:nonzero;stroke:none" id="path58" />
                <path transform="translate(-57.082002,5.0137029)" d="m 0,0 c -0.678,-2.194 -2.713,-10.812 -2.713,-16.765 0,-2.664 0.339,-4.7 1.583,-5.327 0.226,-0.157 0.452,-0.157 0.678,-0.157 5.312,0 11.869,33.686 11.869,42.304 v 0.939 c -0.339,0.314 -0.565,0.627 -0.791,0.941 C 6.443,17.391 2.035,6.58 0,0 M 8.026,26.948 C 7.8,27.731 7.8,28.358 7.8,28.985 c 0,1.253 0.339,2.194 1.017,2.977 0.565,0.627 1.13,0.939 1.809,0.939 0.339,0 0.678,-0.156 1.13,-0.312 1.922,-1.098 3.278,-3.604 4.069,-7.834 2.6,-3.917 6.33,-7.207 13.904,-7.991 3.957,-0.47 7.574,-0.626 10.739,-0.626 11.869,0 18.086,2.507 18.086,2.663 h 0.564 c 1.244,0 1.922,-1.41 1.922,-2.977 0,-1.567 -0.564,-3.134 -1.582,-3.603 0,0 -4.521,-1.254 -13.791,-1.254 -4.069,0 -9.043,0.313 -14.921,0.94 -6.217,0.783 -10.173,2.194 -13.677,4.387 -0.113,-13.475 -3.73,-34.626 -12.209,-42.93 -1.582,-1.41 -3.504,-2.349 -5.312,-2.349 -0.904,0 -1.809,0.156 -2.486,0.626 -3.279,1.88 -4.409,6.423 -4.409,11.751 0,7.207 2.035,15.668 3.391,19.898 1.809,5.641 7.912,19.272 12.208,23.031 -0.113,0.157 -0.226,0.47 -0.226,0.627" style="fill:#807e7f;fill-opacity:1;fill-rule:nonzero;stroke:none" id="path62" />
                <path d="m 0,0 c 6.33,11.437 12.773,21.308 17.747,21.308 2.261,0 4.183,-1.88 5.652,-6.267 4.973,-15.825 10.964,-21.936 17.86,-21.936 8.929,0 19.555,10.499 31.65,22.719 0.452,0.783 1.018,0.94 1.47,0.94 1.13,0 2.147,-1.567 2.147,-2.977 0,-0.783 -0.338,-1.566 -1.017,-2.037 -9.043,-9.87 -22.608,-23.972 -34.928,-23.972 -7.687,0 -14.922,5.485 -20.121,21.465 -0.339,1.41 -0.904,2.037 -1.582,2.037 -5.766,0 -22.382,-32.275 -22.607,-35.565 -0.679,-2.037 -2.827,-3.134 -4.635,-3.134 -1.583,0 -2.94,0.94 -2.94,2.977 v 0.627 l 10.965,60.791 c 0.566,3.133 2.261,4.543 3.956,4.543 2.035,0 4.07,-2.037 4.07,-5.64 v -0.314 z" style="fill:#807e7f;fill-opacity:1;fill-rule:nonzero;stroke:none" id="path66" />
              </g>

            </g>
            <g transform="translate(270.3989,507.2476)" id="g68">
              <path id="path70" style="fill:#ebd0c9;fill-opacity:1;fill-rule:nonzero;stroke:none" d="m 0,0 -0.099,-0.513 -3.172,-15.949 -0.211,-0.088 c -2.259,-1.04 -4.799,-2.1 -6.175,-2.523 -4.238,-1.306 -8.744,-2.611 -13.279,-2.858 -0.898,-0.053 -1.852,-0.071 -2.835,-0.071 -7.214,0 -16.492,1.289 -24.283,6.563 -3.874,2.63 -7.481,6.493 -10.429,11.151 -5.362,8.505 -8.366,20.784 -8.043,32.851 0.448,17.255 7.734,32.853 19.496,41.709 6.584,4.924 14.305,5.945 19.609,5.945 1.475,0 3.004,-0.088 4.548,-0.247 3.187,-0.352 6.372,-1.005 9.447,-1.959 1.685,-0.439 3.382,-1.057 5.122,-1.692 l 0.435,-0.159 c 0.661,-0.231 1.306,-0.476 2.022,-0.705 1.839,-0.636 3.089,-0.459 3.72,0.493 l 0.126,0.193 h 1.592 V 48.748 H -3.931 L -4.028,49.1 c -0.253,0.918 -0.589,1.799 -0.941,2.753 -2.344,6.351 -5.319,13.195 -9.853,16.531 -4.085,2.964 -8.843,4.604 -13.376,4.604 -7.805,0 -14.261,-3.228 -19.203,-9.613 -6.134,-7.959 -9.474,-20.627 -9.165,-34.776 0.182,-8.91 1.727,-18.226 4.168,-24.931 2.765,-7.587 6.471,-13.25 10.991,-16.814 1.585,-1.252 3.228,-2.275 4.885,-3.088 5.951,-2.804 13.264,-3.191 19.58,-1.038 2.091,0.722 4.197,2.01 6.442,3.898 1.882,1.603 3.721,3.811 5.461,6.58 0.899,1.43 1.769,3.071 2.583,4.905 l 0.982,2.401 z" />
            </g>
            <g transform="translate(270.3989,507.2476)" id="g72">
              <path id="path74" style="fill:none;stroke:#ebd0c9;stroke-width:0.75;stroke-linecap:butt;stroke-linejoin:miter;stroke-miterlimit:10;stroke-dasharray:none;stroke-opacity:1" d="m 0,0 -0.099,-0.513 -3.172,-15.949 -0.211,-0.088 c -2.259,-1.04 -4.799,-2.1 -6.175,-2.523 -4.238,-1.306 -8.744,-2.611 -13.279,-2.858 -0.898,-0.053 -1.852,-0.071 -2.835,-0.071 -7.214,0 -16.492,1.289 -24.283,6.563 -3.874,2.63 -7.481,6.493 -10.429,11.151 -5.362,8.505 -8.366,20.784 -8.043,32.851 0.448,17.255 7.734,32.853 19.496,41.709 6.584,4.924 14.305,5.945 19.609,5.945 1.475,0 3.004,-0.088 4.548,-0.247 3.187,-0.352 6.372,-1.005 9.447,-1.959 1.685,-0.439 3.382,-1.057 5.122,-1.692 l 0.435,-0.159 c 0.661,-0.231 1.306,-0.476 2.022,-0.705 1.839,-0.636 3.089,-0.459 3.72,0.493 l 0.126,0.193 h 1.592 V 48.748 H -3.931 L -4.028,49.1 c -0.253,0.918 -0.589,1.799 -0.941,2.753 -2.344,6.351 -5.319,13.195 -9.853,16.531 -4.085,2.964 -8.843,4.604 -13.376,4.604 -7.805,0 -14.261,-3.228 -19.203,-9.613 -6.134,-7.959 -9.474,-20.627 -9.165,-34.776 0.182,-8.91 1.727,-18.226 4.168,-24.931 2.765,-7.587 6.471,-13.25 10.991,-16.814 1.585,-1.252 3.228,-2.275 4.885,-3.088 5.951,-2.804 13.264,-3.191 19.58,-1.038 2.091,0.722 4.197,2.01 6.442,3.898 1.882,1.603 3.721,3.811 5.461,6.58 0.899,1.43 1.769,3.071 2.583,4.905 l 0.982,2.401 z" />
            </g>
            <g transform="translate(359.2676,582.3413)" id="g76">
              <path id="path78" style="fill:#ebd0c9;fill-opacity:1;fill-rule:nonzero;stroke:none" d="m 0,0 v -1.909 c 0,0 -1.507,0.001 -1.795,-0.033 -1.494,-0.173 -2.68,-0.799 -3.609,-1.94 -1.685,-2.028 -2.457,-5.627 -2.457,-11.326 l -0.042,-35.674 c 0,-10.902 -0.113,-19.089 -1.515,-24.946 -1.391,-5.751 -4.169,-10.779 -8.269,-14.944 -3.902,-3.97 -10.4,-6.319 -17.825,-6.319 -3.51,0 -7.327,0.655 -10.78,1.714 -6.219,1.923 -11.356,6.297 -14.473,12.314 -1.473,2.84 -2.582,6.194 -3.27,9.951 -1.348,7.075 -1.431,14.786 -1.515,21.577 -0.071,4.764 -0.085,15.846 -0.085,23.926 v 13.869 c 0,7.94 -1.685,11.481 -5.629,11.834 h -0.182 -1.109 v 1.91 h 24.914 v -1.906 c 0,0 -0.146,0.002 -0.155,0.002 -0.14,0 -0.714,-0.006 -0.849,-0.009 -0.896,-0.016 -1.811,-0.243 -2.624,-0.719 -0.584,-0.343 -1.081,-0.86 -1.481,-1.494 -0.44,-0.698 -0.77,-1.507 -1.019,-2.341 -0.314,-1.05 -0.496,-2.154 -0.605,-3.266 -0.136,-1.361 -0.201,-2.76 -0.201,-4.135 0,-1.57 0,-38.499 0.043,-42.433 0,-4.501 0.168,-8.257 0.506,-11.84 0.532,-5.644 1.528,-10.126 2.962,-13.32 1.418,-3.212 3.522,-5.912 6.245,-8.027 2.694,-2.083 6.049,-3.141 9.951,-3.141 4.058,0 9.799,0.74 14.094,4.286 3.959,3.247 6.695,7.482 8.141,12.581 1.375,4.781 1.375,13.285 1.362,24.047 v 36.467 c 0,5.576 -0.801,9.139 -2.486,11.222 -1.178,1.429 -2.736,2.108 -4.799,2.108 -0.013,0.003 -1.039,0 -1.039,0 l 0,1.914 z" />
            </g>
            <g transform="translate(359.2676,582.3413)" id="g80">
              <path id="path82" style="fill:none;stroke:#ebd0c9;stroke-width:0.75;stroke-linecap:butt;stroke-linejoin:miter;stroke-miterlimit:10;stroke-dasharray:none;stroke-opacity:1" d="m 0,0 v -1.909 c 0,0 -1.507,0.001 -1.795,-0.033 -1.494,-0.173 -2.68,-0.799 -3.609,-1.94 -1.685,-2.028 -2.457,-5.627 -2.457,-11.326 l -0.042,-35.674 c 0,-10.902 -0.113,-19.089 -1.515,-24.946 -1.391,-5.751 -4.169,-10.779 -8.269,-14.944 -3.902,-3.97 -10.4,-6.319 -17.825,-6.319 -3.51,0 -7.327,0.655 -10.78,1.714 -6.219,1.923 -11.356,6.297 -14.473,12.314 -1.473,2.84 -2.582,6.194 -3.27,9.951 -1.348,7.075 -1.431,14.786 -1.515,21.577 -0.071,4.764 -0.085,15.846 -0.085,23.926 v 13.869 c 0,7.94 -1.685,11.481 -5.629,11.834 h -0.182 -1.109 v 1.91 h 24.914 v -1.906 c 0,0 -0.146,0.002 -0.155,0.002 -0.14,0 -0.714,-0.006 -0.849,-0.009 -0.896,-0.016 -1.811,-0.243 -2.624,-0.719 -0.584,-0.343 -1.081,-0.86 -1.481,-1.494 -0.44,-0.698 -0.77,-1.507 -1.019,-2.341 -0.314,-1.05 -0.496,-2.154 -0.605,-3.266 -0.136,-1.361 -0.201,-2.76 -0.201,-4.135 0,-1.57 0,-38.499 0.043,-42.433 0,-4.501 0.168,-8.257 0.506,-11.84 0.532,-5.644 1.528,-10.126 2.962,-13.32 1.418,-3.212 3.522,-5.912 6.245,-8.027 2.694,-2.083 6.049,-3.141 9.951,-3.141 4.058,0 9.799,0.74 14.094,4.286 3.959,3.247 6.695,7.482 8.141,12.581 1.375,4.781 1.375,13.285 1.362,24.047 v 36.467 c 0,5.576 -0.801,9.139 -2.486,11.222 -1.178,1.429 -2.736,2.108 -4.799,2.108 -0.013,0.003 -1.039,0 -1.039,0 l 0,1.914 z" />
            </g>
            <g transform="translate(428.8638,486.4307)" id="g84">
              <path id="path86" style="fill:#ebd0c9;fill-opacity:1;fill-rule:nonzero;stroke:none" d="m 0,0 h -29.449 v -0.003 h -24.886 v 1.909 h 0.422 0.111 c 1.853,0 3.201,0.56 4.183,1.742 1.487,1.818 2.19,5.029 2.19,10.11 v 68.388 c 0,5.064 -0.703,8.273 -2.19,10.11 -0.982,1.182 -2.274,1.742 -3.944,1.742 h -0.772 v 1.909 h 24.886 v -1.909 h -0.421 -0.406 c -1.586,0 -2.934,-0.597 -3.888,-1.761 -1.488,-1.835 -2.19,-5.045 -2.19,-10.11 V 3.169 l 16.338,-0.011 c 9.741,0 14.949,3.811 17.967,13.162 l 0.688,1.957 H 0 Z" />
            </g>
            <g transform="translate(428.8638,486.4307)" id="g88">
              <path id="path90" style="fill:none;stroke:#ebd0c9;stroke-width:0.75;stroke-linecap:butt;stroke-linejoin:miter;stroke-miterlimit:10;stroke-dasharray:none;stroke-opacity:1" d="m 0,0 h -29.449 v -0.003 h -24.886 v 1.909 h 0.422 0.111 c 1.853,0 3.201,0.56 4.183,1.742 1.487,1.818 2.19,5.029 2.19,10.11 v 68.388 c 0,5.064 -0.703,8.273 -2.19,10.11 -0.982,1.182 -2.274,1.742 -3.944,1.742 h -0.772 v 1.909 h 24.886 v -1.909 h -0.421 -0.406 c -1.586,0 -2.934,-0.597 -3.888,-1.761 -1.488,-1.835 -2.19,-5.045 -2.19,-10.11 V 3.169 l 16.338,-0.011 c 9.741,0 14.949,3.811 17.967,13.162 l 0.688,1.957 H 0 Z" />
            </g>
            <g transform="translate(515.6963,582.335)" id="g92">
              <path id="path94" style="fill:#ebd0c9;fill-opacity:1;fill-rule:nonzero;stroke:none" d="m 0,0 v -18.878 h -1.519 l -0.66,1.941 c -3.128,9.704 -8.505,13.833 -17.98,13.833 h -9.698 v -79.023 c 0,-5.083 0.687,-8.294 2.189,-10.11 0.982,-1.201 2.232,-1.761 3.944,-1.761 h 0.772 v -1.909 h -24.915 v 1.909 h 0.688 c 1.754,0 3.06,0.56 4.03,1.742 1.515,1.854 2.217,5.063 2.217,10.129 v 79.023 h -9.728 c -9.445,0 -14.822,-4.129 -17.967,-13.797 l -0.673,-1.958 h -1.517 V 0 Z" />
            </g>
            <g transform="translate(515.6963,582.335)" id="g96">
              <path id="path98" style="fill:none;stroke:#ebd0c9;stroke-width:0.75;stroke-linecap:butt;stroke-linejoin:miter;stroke-miterlimit:10;stroke-dasharray:none;stroke-opacity:1" d="m 0,0 v -18.878 h -1.519 l -0.66,1.941 c -3.128,9.704 -8.505,13.833 -17.98,13.833 h -9.698 v -79.023 c 0,-5.083 0.687,-8.294 2.189,-10.11 0.982,-1.201 2.232,-1.761 3.944,-1.761 h 0.772 v -1.909 h -24.915 v 1.909 h 0.688 c 1.754,0 3.06,0.56 4.03,1.742 1.515,1.854 2.217,5.063 2.217,10.129 v 79.023 h -9.728 c -9.445,0 -14.822,-4.129 -17.967,-13.797 l -0.673,-1.958 h -1.517 V 0 Z" />
            </g>
            <g transform="translate(603.6514,582.3413)" id="g100">
              <path id="path102" style="fill:#ebd0c9;fill-opacity:1;fill-rule:nonzero;stroke:none" d="m 0,0 v -1.909 c 0,0 -1.508,0.001 -1.795,-0.033 -1.493,-0.173 -2.681,-0.799 -3.608,-1.94 -1.686,-2.028 -2.458,-5.627 -2.458,-11.326 l -0.041,-35.674 c 0,-10.902 -0.114,-19.089 -1.516,-24.946 -1.391,-5.751 -4.169,-10.779 -8.269,-14.944 -3.902,-3.97 -10.4,-6.319 -17.825,-6.319 -3.51,0 -7.327,0.655 -10.78,1.714 -6.219,1.923 -11.355,6.297 -14.473,12.314 -1.472,2.84 -2.582,6.194 -3.269,9.951 -1.349,7.075 -1.432,14.786 -1.516,21.577 -0.071,4.764 -0.085,15.846 -0.085,23.926 v 13.869 c 0,7.94 -1.684,11.481 -5.629,11.834 h -0.182 -1.11 v 1.91 h 24.915 v -1.906 c 0,0 -0.146,0.002 -0.155,0.002 -0.141,0 -0.715,-0.006 -0.849,-0.009 -0.896,-0.016 -1.811,-0.243 -2.624,-0.719 -0.584,-0.343 -1.082,-0.86 -1.48,-1.494 -0.441,-0.698 -0.771,-1.507 -1.02,-2.341 -0.314,-1.05 -0.496,-2.154 -0.605,-3.266 -0.136,-1.361 -0.201,-2.76 -0.201,-4.135 0,-1.57 0,-38.499 0.043,-42.433 0,-4.501 0.168,-8.257 0.506,-11.84 0.533,-5.644 1.529,-10.126 2.962,-13.32 1.418,-3.212 3.522,-5.912 6.245,-8.027 2.694,-2.083 6.048,-3.141 9.952,-3.141 4.056,0 9.798,0.74 14.093,4.286 3.959,3.247 6.695,7.482 8.141,12.581 1.375,4.781 1.375,13.285 1.362,24.047 v 36.467 c 0,5.576 -0.801,9.139 -2.486,11.222 -1.179,1.429 -2.736,2.108 -4.799,2.108 -0.013,0.003 -1.039,0 -1.039,0 l 0,1.914 z" />
            </g>
            <g transform="translate(603.6514,582.3413)" id="g104">
              <path id="path106" style="fill:none;stroke:#ebd0c9;stroke-width:0.75;stroke-linecap:butt;stroke-linejoin:miter;stroke-miterlimit:10;stroke-dasharray:none;stroke-opacity:1" d="m 0,0 v -1.909 c 0,0 -1.508,0.001 -1.795,-0.033 -1.493,-0.173 -2.681,-0.799 -3.608,-1.94 -1.686,-2.028 -2.458,-5.627 -2.458,-11.326 l -0.041,-35.674 c 0,-10.902 -0.114,-19.089 -1.516,-24.946 -1.391,-5.751 -4.169,-10.779 -8.269,-14.944 -3.902,-3.97 -10.4,-6.319 -17.825,-6.319 -3.51,0 -7.327,0.655 -10.78,1.714 -6.219,1.923 -11.355,6.297 -14.473,12.314 -1.472,2.84 -2.582,6.194 -3.269,9.951 -1.349,7.075 -1.432,14.786 -1.516,21.577 -0.071,4.764 -0.085,15.846 -0.085,23.926 v 13.869 c 0,7.94 -1.684,11.481 -5.629,11.834 h -0.182 -1.11 v 1.91 h 24.915 v -1.906 c 0,0 -0.146,0.002 -0.155,0.002 -0.141,0 -0.715,-0.006 -0.849,-0.009 -0.896,-0.016 -1.811,-0.243 -2.624,-0.719 -0.584,-0.343 -1.082,-0.86 -1.48,-1.494 -0.441,-0.698 -0.771,-1.507 -1.02,-2.341 -0.314,-1.05 -0.496,-2.154 -0.605,-3.266 -0.136,-1.361 -0.201,-2.76 -0.201,-4.135 0,-1.57 0,-38.499 0.043,-42.433 0,-4.501 0.168,-8.257 0.506,-11.84 0.533,-5.644 1.529,-10.126 2.962,-13.32 1.418,-3.212 3.522,-5.912 6.245,-8.027 2.694,-2.083 6.048,-3.141 9.952,-3.141 4.056,0 9.798,0.74 14.093,4.286 3.959,3.247 6.695,7.482 8.141,12.581 1.375,4.781 1.375,13.285 1.362,24.047 v 36.467 c 0,5.576 -0.801,9.139 -2.486,11.222 -1.179,1.429 -2.736,2.108 -4.799,2.108 -0.013,0.003 -1.039,0 -1.039,0 l 0,1.914 z" />
            </g>
            <g transform="translate(667.6758,557.4941)" id="g108">
              <path id="path110" style="fill:#ebd0c9;fill-opacity:1;fill-rule:nonzero;stroke:none" d="m 0,0 c 0,13.99 -5.362,21.683 -15.089,21.683 h -15.679 v -44.848 h 12.746 C -6.737,-23.165 0,-14.503 0,0 m 21.616,-69.157 v -1.909 c 0,0 -5.432,0 -7.65,0.016 l -1.713,0.018 c -11.13,0 -14.694,9.069 -19.636,21.578 l -0.07,0.195 c -1.194,3.033 -2.302,5.805 -3.567,8.697 -1.725,3.987 -3.887,7.411 -6.427,10.127 -1.068,1.166 -2.245,2.205 -3.495,3.106 -0.015,0 -0.072,0.036 -0.126,0.088 l -0.366,0.298 c -0.196,0.159 -0.462,0.354 -0.729,0.549 l -0.142,0.124 h -8.464 v -31.017 c 0,-5.066 0.703,-8.275 2.191,-10.128 0.968,-1.199 2.259,-1.744 3.944,-1.744 h 0.8 v -1.907 h -24.929 v 1.909 h 0.422 c 1.865,-0.053 3.255,0.509 4.295,1.742 1.501,1.835 2.189,5.046 2.189,10.11 v 68.347 c 0,5.082 -0.703,8.294 -2.189,10.11 -0.983,1.183 -2.261,1.78 -3.917,1.78 h -0.8 v 1.909 h 33.659 c 17.012,0 26.783,-9.033 26.783,-24.807 0,-14.359 -8.549,-23.798 -23.442,-25.864 l -1.557,-0.212 1.333,-1.04 c 0.224,-0.178 0.435,-0.354 0.645,-0.53 l 0.379,-0.3 c 0.309,-0.264 0.575,-0.476 0.758,-0.617 2.822,-2.136 5.349,-4.94 7.748,-8.558 0.575,-0.828 1.138,-1.711 1.685,-2.68 0.505,-0.883 1.01,-1.766 1.516,-2.647 l 2.035,-3.599 c 2.4,-4.288 4.884,-8.716 7.663,-12.827 l 0.212,-0.317 c 2.413,-3.601 6.048,-8.907 10.625,-9.929 z" />
            </g>
            <g transform="translate(667.6758,557.4941)" id="g112">
              <path id="path114" style="fill:none;stroke:#ebd0c9;stroke-width:0.75;stroke-linecap:butt;stroke-linejoin:miter;stroke-miterlimit:10;stroke-dasharray:none;stroke-opacity:1" d="m 0,0 c 0,13.99 -5.362,21.683 -15.089,21.683 h -15.679 v -44.848 h 12.746 C -6.737,-23.165 0,-14.503 0,0 Z m 21.616,-69.157 v -1.909 c 0,0 -5.432,0 -7.65,0.016 l -1.713,0.018 c -11.13,0 -14.694,9.069 -19.636,21.578 l -0.07,0.195 c -1.194,3.033 -2.302,5.805 -3.567,8.697 -1.725,3.987 -3.887,7.411 -6.427,10.127 -1.068,1.166 -2.245,2.205 -3.495,3.106 -0.015,0 -0.072,0.036 -0.126,0.088 l -0.366,0.298 c -0.196,0.159 -0.462,0.354 -0.729,0.549 l -0.142,0.124 h -8.464 v -31.017 c 0,-5.066 0.703,-8.275 2.191,-10.128 0.968,-1.199 2.259,-1.744 3.944,-1.744 h 0.8 v -1.907 h -24.929 v 1.909 h 0.422 c 1.865,-0.053 3.255,0.509 4.295,1.742 1.501,1.835 2.189,5.046 2.189,10.11 v 68.347 c 0,5.082 -0.703,8.294 -2.189,10.11 -0.983,1.183 -2.261,1.78 -3.917,1.78 h -0.8 v 1.909 h 33.659 c 17.012,0 26.783,-9.033 26.783,-24.807 0,-14.359 -8.549,-23.798 -23.442,-25.864 l -1.557,-0.212 1.333,-1.04 c 0.224,-0.178 0.435,-0.354 0.645,-0.53 l 0.379,-0.3 c 0.309,-0.264 0.575,-0.476 0.758,-0.617 2.822,-2.136 5.349,-4.94 7.748,-8.558 0.575,-0.828 1.138,-1.711 1.685,-2.68 0.505,-0.883 1.01,-1.766 1.516,-2.647 l 2.035,-3.599 c 2.4,-4.288 4.884,-8.716 7.663,-12.827 l 0.212,-0.317 c 2.413,-3.601 6.048,-8.907 10.625,-9.929 z" />
            </g>
            <g transform="translate(750.3516,526.0898)" id="g116">
              <path id="path118" style="fill:#ebd0c9;fill-opacity:1;fill-rule:nonzero;stroke:none" d="M 0,0 -13.656,40.757 -25.433,0 Z M 31.752,-39.66 H 3.847 v 1.907 c 0,0 1.925,-0.005 2.334,0.059 1.5,0.238 2.559,0.915 3.211,2.037 0.967,1.712 0.897,4.377 -0.225,8.204 L 1.038,-3.121 h -27.412 l -6.231,-21.543 c -1.348,-5.187 -1.404,-8.609 -0.156,-10.708 0.955,-1.642 2.626,-2.381 5.096,-2.381 h 0.801 v -1.909 h -19.834 v 1.909 h 0.671 c 4.155,0 7.12,3.439 9.589,11.22 l 24.41,82.78 h 4.519 L -7.396,55.93 21.14,-26.621 c 2.329,-6.317 4.814,-9.634 8.043,-10.71 0.193,-0.071 0.411,-0.125 0.654,-0.17 0.428,-0.079 1.915,-0.252 1.915,-0.252 z" />
            </g>
            <g transform="translate(750.3516,526.0898)" id="g120">
              <path id="path122" style="fill:none;stroke:#ebd0c9;stroke-width:0.75;stroke-linecap:butt;stroke-linejoin:miter;stroke-miterlimit:10;stroke-dasharray:none;stroke-opacity:1" d="M 0,0 -13.656,40.757 -25.433,0 Z M 31.752,-39.66 H 3.847 v 1.907 c 0,0 1.925,-0.005 2.334,0.059 1.5,0.238 2.559,0.915 3.211,2.037 0.967,1.712 0.897,4.377 -0.225,8.204 L 1.038,-3.121 h -27.412 l -6.231,-21.543 c -1.348,-5.187 -1.404,-8.609 -0.156,-10.708 0.955,-1.642 2.626,-2.381 5.096,-2.381 h 0.801 v -1.909 h -19.834 v 1.909 h 0.671 c 4.155,0 7.12,3.439 9.589,11.22 l 24.41,82.78 h 4.519 L -7.396,55.93 21.14,-26.621 c 2.329,-6.317 4.814,-9.634 8.043,-10.71 0.193,-0.071 0.411,-0.125 0.654,-0.17 0.428,-0.079 1.915,-0.252 1.915,-0.252 z" />
            </g>
          </g>
        </g>

        <!-- Circle Top  -->

        <g id="circle_top">
          <path style="fill:none;stroke:#807e7f;stroke-width:1;stroke-linecap:butt;stroke-linejoin:miter;stroke-miterlimit:10;stroke-dasharray:none;stroke-opacity:1" d="m 296.5,608.0293 c 31.27,76.539 106.462,130.471 194.25,130.471 86.881,0 161.425,-52.824 193.267,-128.106">
            <!-- <animate attributeName="d" values="m 296.5,608.0293 c 31.27,76.539 106.462,130.471 194.25; m 296.5,608.0293 c 31.27,76.539 106.462,130.471 194.25;
       m 296.5,608.0293 c 31.27,76.539 106.462,130.471 194.25,130.471 86.881;                                       m 296.5,608.0293 c 31.27,76.539 106.462,130.471 194.25,130.471 86.881,0 161.425,-52.824 193.267,-128.106" fill="freeze" keyTimes="0; 0.5; 0.8; 1" begin="line1.end" dur="1s" id="top-line-2" /> -->
            <animate attributeName="opacity"  from="0" to="1" fill="freeze" begin="line1top.begin" dur="5s" id="line2top" />
          </path>
          <path transform="translate(278.4336,598.2441)" d="m 0,0 c 29.148,89.542 113.3,154.256 212.566,154.256 98.352,0 181.866,-63.527 211.746,-151.786" style="fill:none;stroke:#807e7f;stroke-width:4;stroke-linecap:butt;stroke-linejoin:miter;stroke-miterlimit:10;stroke-dasharray:none;stroke-opacity:1">
            <!-- <animate attributeName="d" values="m 0,0 c 29.148,30.542 100.3;
                                             m 0,0 c 29.148,89.542 113.3,154.256 212.566;
                                            m 0,0 c 29.148,89.542 113.3,154.256 212.566,154.56 98.352,0 181.866;                                        m 0,0 c 29.148,89.542 113.3,154.256 212.566,154.256 98.352,0 181.866,-63.527 211.746,-151.786" fill="freeze" keyTimes="0; 0.5; 0.8; 1" dur="1s" id="line1" /> -->
            <animate attributeName="opacity"  from="0" to="1" fill="freeze" dur="5s" id="line1top" />
          </path>
        </g>
      </g>
    </svg>
